<svg xmlns="http://www.w3.org/2000/svg" xmlns:xlink="http://www.w3.org/1999/xlink" width="1024" zoomAndPan="magnify" viewBox="0 0 768 767.999994" height="1024" preserveAspectRatio="xMidYMid meet" version="1.0"><defs><linearGradient x1="0.0000213333" gradientTransform="matrix(0.75, 0, 0, 0.75, 0.000003, 0.00002)" y1="1023.999979" x2="1023.999979" gradientUnits="userSpaceOnUse" y2="0.0000213333" id="2f2b7239bd"><stop stop-opacity="1" stop-color="rgb(46.669006%, 58.039856%, 71.369934%)" offset="0"/><stop stop-opacity="1" stop-color="rgb(46.827698%, 58.195496%, 71.481323%)" offset="0.0078125"/><stop stop-opacity="1" stop-color="rgb(47.146606%, 58.506775%, 71.704102%)" offset="0.015625"/><stop stop-opacity="1" stop-color="rgb(47.465515%, 58.81958%, 71.928406%)" offset="0.0234375"/><stop stop-opacity="1" stop-color="rgb(47.784424%, 59.132385%, 72.151184%)" offset="0.03125"/><stop stop-opacity="1" stop-color="rgb(48.101807%, 59.44519%, 72.375488%)" offset="0.0390625"/><stop stop-opacity="1" stop-color="rgb(48.420715%, 59.757996%, 72.598267%)" offset="0.046875"/><stop stop-opacity="1" stop-color="rgb(48.739624%, 60.069275%, 72.822571%)" offset="0.0546875"/><stop stop-opacity="1" stop-color="rgb(49.058533%, 60.38208%, 73.046875%)" offset="0.0625"/><stop stop-opacity="1" stop-color="rgb(49.377441%, 60.694885%, 73.269653%)" offset="0.0703125"/><stop stop-opacity="1" stop-color="rgb(49.694824%, 61.00769%, 73.493958%)" offset="0.078125"/><stop stop-opacity="1" stop-color="rgb(50.013733%, 61.320496%, 73.716736%)" offset="0.0859375"/><stop stop-opacity="1" stop-color="rgb(50.332642%, 61.631775%, 73.94104%)" offset="0.09375"/><stop stop-opacity="1" stop-color="rgb(50.65155%, 61.94458%, 74.165344%)" offset="0.101562"/><stop stop-opacity="1" stop-color="rgb(50.968933%, 62.257385%, 74.388123%)" offset="0.109375"/><stop stop-opacity="1" stop-color="rgb(51.287842%, 62.57019%, 74.612427%)" offset="0.117187"/><stop stop-opacity="1" stop-color="rgb(51.60675%, 62.882996%, 74.835205%)" offset="0.125"/><stop stop-opacity="1" stop-color="rgb(51.925659%, 63.194275%, 75.059509%)" offset="0.132812"/><stop stop-opacity="1" stop-color="rgb(52.244568%, 63.50708%, 75.282288%)" offset="0.140625"/><stop stop-opacity="1" stop-color="rgb(52.561951%, 63.819885%, 75.506592%)" offset="0.148437"/><stop stop-opacity="1" stop-color="rgb(52.880859%, 64.13269%, 75.730896%)" offset="0.15625"/><stop stop-opacity="1" stop-color="rgb(53.199768%, 64.445496%, 75.953674%)" offset="0.164062"/><stop stop-opacity="1" stop-color="rgb(53.518677%, 64.756775%, 76.177979%)" offset="0.171875"/><stop stop-opacity="1" stop-color="rgb(53.837585%, 65.06958%, 76.400757%)" offset="0.179687"/><stop stop-opacity="1" stop-color="rgb(54.154968%, 65.382385%, 76.625061%)" offset="0.1875"/><stop stop-opacity="1" stop-color="rgb(54.473877%, 65.69519%, 76.849365%)" offset="0.195312"/><stop stop-opacity="1" stop-color="rgb(54.792786%, 66.007996%, 77.072144%)" offset="0.203125"/><stop stop-opacity="1" stop-color="rgb(55.111694%, 66.319275%, 77.296448%)" offset="0.210937"/><stop stop-opacity="1" stop-color="rgb(55.430603%, 66.63208%, 77.519226%)" offset="0.21875"/><stop stop-opacity="1" stop-color="rgb(55.747986%, 66.944885%, 77.74353%)" offset="0.226562"/><stop stop-opacity="1" stop-color="rgb(56.066895%, 67.25769%, 77.967834%)" offset="0.234375"/><stop stop-opacity="1" stop-color="rgb(56.385803%, 67.570496%, 78.190613%)" offset="0.242187"/><stop stop-opacity="1" stop-color="rgb(56.704712%, 67.881775%, 78.414917%)" offset="0.25"/><stop stop-opacity="1" stop-color="rgb(57.023621%, 68.19458%, 78.637695%)" offset="0.257812"/><stop stop-opacity="1" stop-color="rgb(57.341003%, 68.507385%, 78.862%)" offset="0.265625"/><stop stop-opacity="1" stop-color="rgb(57.659912%, 68.82019%, 79.084778%)" offset="0.273437"/><stop stop-opacity="1" stop-color="rgb(57.978821%, 69.132996%, 79.309082%)" offset="0.28125"/><stop stop-opacity="1" stop-color="rgb(58.297729%, 69.444275%, 79.533386%)" offset="0.289062"/><stop stop-opacity="1" stop-color="rgb(58.616638%, 69.75708%, 79.756165%)" offset="0.296875"/><stop stop-opacity="1" stop-color="rgb(58.934021%, 70.069885%, 79.980469%)" offset="0.304687"/><stop stop-opacity="1" stop-color="rgb(59.25293%, 70.38269%, 80.203247%)" offset="0.3125"/><stop stop-opacity="1" stop-color="rgb(59.571838%, 70.695496%, 80.427551%)" offset="0.320312"/><stop stop-opacity="1" stop-color="rgb(59.890747%, 71.006775%, 80.651855%)" offset="0.328125"/><stop stop-opacity="1" stop-color="rgb(60.20813%, 71.31958%, 80.874634%)" offset="0.335937"/><stop stop-opacity="1" stop-color="rgb(60.527039%, 71.632385%, 81.098938%)" offset="0.34375"/><stop stop-opacity="1" stop-color="rgb(60.845947%, 71.94519%, 81.321716%)" offset="0.351562"/><stop stop-opacity="1" stop-color="rgb(61.164856%, 72.257996%, 81.546021%)" offset="0.359375"/><stop stop-opacity="1" stop-color="rgb(61.483765%, 72.569275%, 81.768799%)" offset="0.367187"/><stop stop-opacity="1" stop-color="rgb(61.801147%, 72.88208%, 81.993103%)" offset="0.375"/><stop stop-opacity="1" stop-color="rgb(62.120056%, 73.194885%, 82.217407%)" offset="0.382812"/><stop stop-opacity="1" stop-color="rgb(62.438965%, 73.50769%, 82.440186%)" offset="0.390625"/><stop stop-opacity="1" stop-color="rgb(62.757874%, 73.820496%, 82.66449%)" offset="0.398437"/><stop stop-opacity="1" stop-color="rgb(63.076782%, 74.131775%, 82.887268%)" offset="0.40625"/><stop stop-opacity="1" stop-color="rgb(63.394165%, 74.44458%, 83.111572%)" offset="0.414062"/><stop stop-opacity="1" stop-color="rgb(63.713074%, 74.757385%, 83.335876%)" offset="0.421875"/><stop stop-opacity="1" stop-color="rgb(64.031982%, 75.07019%, 83.558655%)" offset="0.429687"/><stop stop-opacity="1" stop-color="rgb(64.350891%, 75.382996%, 83.782959%)" offset="0.4375"/><stop stop-opacity="1" stop-color="rgb(64.6698%, 75.694275%, 84.005737%)" offset="0.445312"/><stop stop-opacity="1" stop-color="rgb(64.987183%, 76.00708%, 84.230042%)" offset="0.453125"/><stop stop-opacity="1" stop-color="rgb(65.306091%, 76.319885%, 84.454346%)" offset="0.460937"/><stop stop-opacity="1" stop-color="rgb(65.625%, 76.63269%, 84.677124%)" offset="0.46875"/><stop stop-opacity="1" stop-color="rgb(65.943909%, 76.945496%, 84.901428%)" offset="0.476562"/><stop stop-opacity="1" stop-color="rgb(66.262817%, 77.256775%, 85.124207%)" offset="0.484375"/><stop stop-opacity="1" stop-color="rgb(66.5802%, 77.56958%, 85.348511%)" offset="0.492187"/><stop stop-opacity="1" stop-color="rgb(66.899109%, 77.882385%, 85.571289%)" offset="0.5"/><stop stop-opacity="1" stop-color="rgb(67.218018%, 78.19519%, 85.795593%)" offset="0.507812"/><stop stop-opacity="1" stop-color="rgb(67.536926%, 78.507996%, 86.019897%)" offset="0.515625"/><stop stop-opacity="1" stop-color="rgb(67.855835%, 78.819275%, 86.242676%)" offset="0.523437"/><stop stop-opacity="1" stop-color="rgb(68.173218%, 79.13208%, 86.46698%)" offset="0.53125"/><stop stop-opacity="1" stop-color="rgb(68.492126%, 79.444885%, 86.689758%)" offset="0.539062"/><stop stop-opacity="1" stop-color="rgb(68.811035%, 79.75769%, 86.914062%)" offset="0.546875"/><stop stop-opacity="1" stop-color="rgb(69.129944%, 80.070496%, 87.138367%)" offset="0.554687"/><stop stop-opacity="1" stop-color="rgb(69.447327%, 80.381775%, 87.361145%)" offset="0.5625"/><stop stop-opacity="1" stop-color="rgb(69.766235%, 80.69458%, 87.585449%)" offset="0.570312"/><stop stop-opacity="1" stop-color="rgb(70.085144%, 81.007385%, 87.808228%)" offset="0.578125"/><stop stop-opacity="1" stop-color="rgb(70.404053%, 81.32019%, 88.032532%)" offset="0.585937"/><stop stop-opacity="1" stop-color="rgb(70.722961%, 81.632996%, 88.25531%)" offset="0.59375"/><stop stop-opacity="1" stop-color="rgb(71.040344%, 81.944275%, 88.479614%)" offset="0.601562"/><stop stop-opacity="1" stop-color="rgb(71.359253%, 82.25708%, 88.703918%)" offset="0.609375"/><stop stop-opacity="1" stop-color="rgb(71.678162%, 82.569885%, 88.926697%)" offset="0.617187"/><stop stop-opacity="1" stop-color="rgb(71.99707%, 82.88269%, 89.151001%)" offset="0.625"/><stop stop-opacity="1" stop-color="rgb(72.315979%, 83.195496%, 89.373779%)" offset="0.632812"/><stop stop-opacity="1" stop-color="rgb(72.633362%, 83.506775%, 89.598083%)" offset="0.640625"/><stop stop-opacity="1" stop-color="rgb(72.952271%, 83.81958%, 89.822388%)" offset="0.648437"/><stop stop-opacity="1" stop-color="rgb(73.271179%, 84.132385%, 90.045166%)" offset="0.65625"/><stop stop-opacity="1" stop-color="rgb(73.590088%, 84.44519%, 90.26947%)" offset="0.664062"/><stop stop-opacity="1" stop-color="rgb(73.908997%, 84.757996%, 90.492249%)" offset="0.671875"/><stop stop-opacity="1" stop-color="rgb(74.226379%, 85.069275%, 90.716553%)" offset="0.679687"/><stop stop-opacity="1" stop-color="rgb(74.545288%, 85.38208%, 90.939331%)" offset="0.6875"/><stop stop-opacity="1" stop-color="rgb(74.864197%, 85.694885%, 91.163635%)" offset="0.695312"/><stop stop-opacity="1" stop-color="rgb(75.183105%, 86.00769%, 91.387939%)" offset="0.703125"/><stop stop-opacity="1" stop-color="rgb(75.502014%, 86.320496%, 91.610718%)" offset="0.710937"/><stop stop-opacity="1" stop-color="rgb(75.819397%, 86.631775%, 91.835022%)" offset="0.71875"/><stop stop-opacity="1" stop-color="rgb(76.138306%, 86.94458%, 92.0578%)" offset="0.726562"/><stop stop-opacity="1" stop-color="rgb(76.457214%, 87.257385%, 92.282104%)" offset="0.734375"/><stop stop-opacity="1" stop-color="rgb(76.776123%, 87.57019%, 92.506409%)" offset="0.742187"/><stop stop-opacity="1" stop-color="rgb(77.095032%, 87.882996%, 92.729187%)" offset="0.75"/><stop stop-opacity="1" stop-color="rgb(77.412415%, 88.194275%, 92.953491%)" offset="0.757812"/><stop stop-opacity="1" stop-color="rgb(77.731323%, 88.50708%, 93.17627%)" offset="0.765625"/><stop stop-opacity="1" stop-color="rgb(78.050232%, 88.819885%, 93.400574%)" offset="0.773437"/><stop stop-opacity="1" stop-color="rgb(78.369141%, 89.13269%, 93.624878%)" offset="0.78125"/><stop stop-opacity="1" stop-color="rgb(78.688049%, 89.445496%, 93.847656%)" offset="0.789062"/><stop stop-opacity="1" stop-color="rgb(79.005432%, 89.756775%, 94.07196%)" offset="0.796875"/><stop stop-opacity="1" stop-color="rgb(79.324341%, 90.06958%, 94.294739%)" offset="0.804687"/><stop stop-opacity="1" stop-color="rgb(79.64325%, 90.382385%, 94.519043%)" offset="0.8125"/><stop stop-opacity="1" stop-color="rgb(79.962158%, 90.69519%, 94.741821%)" offset="0.820312"/><stop stop-opacity="1" stop-color="rgb(80.279541%, 91.007996%, 94.966125%)" offset="0.828125"/><stop stop-opacity="1" stop-color="rgb(80.59845%, 91.319275%, 95.19043%)" offset="0.835937"/><stop stop-opacity="1" stop-color="rgb(80.917358%, 91.63208%, 95.413208%)" offset="0.84375"/><stop stop-opacity="1" stop-color="rgb(81.236267%, 91.944885%, 95.637512%)" offset="0.851562"/><stop stop-opacity="1" stop-color="rgb(81.555176%, 92.25769%, 95.860291%)" offset="0.859375"/><stop stop-opacity="1" stop-color="rgb(81.872559%, 92.570496%, 96.084595%)" offset="0.867187"/><stop stop-opacity="1" stop-color="rgb(82.191467%, 92.881775%, 96.308899%)" offset="0.875"/><stop stop-opacity="1" stop-color="rgb(82.510376%, 93.19458%, 96.531677%)" offset="0.882812"/><stop stop-opacity="1" stop-color="rgb(82.829285%, 93.507385%, 96.755981%)" offset="0.890625"/><stop stop-opacity="1" stop-color="rgb(83.148193%, 93.82019%, 96.97876%)" offset="0.898437"/><stop stop-opacity="1" stop-color="rgb(83.465576%, 94.132996%, 97.203064%)" offset="0.90625"/><stop stop-opacity="1" stop-color="rgb(83.784485%, 94.444275%, 97.425842%)" offset="0.914062"/><stop stop-opacity="1" stop-color="rgb(84.103394%, 94.75708%, 97.650146%)" offset="0.921875"/><stop stop-opacity="1" stop-color="rgb(84.422302%, 95.069885%, 97.874451%)" offset="0.929687"/><stop stop-opacity="1" stop-color="rgb(84.741211%, 95.38269%, 98.097229%)" offset="0.9375"/><stop stop-opacity="1" stop-color="rgb(85.058594%, 95.695496%, 98.321533%)" offset="0.945312"/><stop stop-opacity="1" stop-color="rgb(85.377502%, 96.006775%, 98.544312%)" offset="0.953125"/><stop stop-opacity="1" stop-color="rgb(85.696411%, 96.31958%, 98.768616%)" offset="0.960937"/><stop stop-opacity="1" stop-color="rgb(86.01532%, 96.632385%, 98.99292%)" offset="0.96875"/><stop stop-opacity="1" stop-color="rgb(86.334229%, 96.94519%, 99.215698%)" offset="0.976562"/><stop stop-opacity="1" stop-color="rgb(86.651611%, 97.257996%, 99.440002%)" offset="0.984375"/><stop stop-opacity="1" stop-color="rgb(86.97052%, 97.569275%, 99.662781%)" offset="0.992187"/><stop stop-opacity="1" stop-color="rgb(87.289429%, 97.88208%, 99.887085%)" offset="1"/></linearGradient><clipPath id="995cad1fe1"><path d="M 115.199219 115.199219 L 652.949219 115.199219 L 652.949219 652.949219 L 115.199219 652.949219 Z M 115.199219 115.199219 " clip-rule="nonzero"/></clipPath><clipPath id="e8c9212f03"><path d="M 384 115.199219 L 652.949219 115.199219 L 652.949219 652.949219 L 384 652.949219 Z M 384 115.199219 " clip-rule="nonzero"/></clipPath><clipPath id="5ab01b9bf9"><path d="M 115.199219 273 L 652.949219 273 L 652.949219 495 L 115.199219 495 Z M 115.199219 273 " clip-rule="nonzero"/></clipPath><clipPath id="bfe5ee8bf5"><path d="M 384 273 L 652.949219 273 L 652.949219 495 L 384 495 Z M 384 273 " clip-rule="nonzero"/></clipPath></defs><rect x="-76.8" width="921.6" fill="#ffffff" y="-76.799999" height="921.599993" fill-opacity="1"/><rect x="-76.8" fill="url(#2f2b7239bd)" width="921.6" y="-76.799999" height="921.599993"/><path fill="#65b1fc" d="M 621.335938 471.667969 C 556.425781 607.785156 456.546875 637.195312 384.074219 637.195312 C 302.464844 637.195312 225.585938 596.445312 178.320312 529.960938 C 130.746094 462.847656 119.398438 377.773438 146.8125 296.480469 L 151.855469 286.082031 C 190.292969 194.390625 283.5625 130.953125 384.074219 130.953125 C 465.683594 130.953125 542.566406 171.707031 589.828125 238.1875 C 637.40625 305.304688 648.75 390.375 621.335938 471.667969 Z M 621.335938 471.667969 " fill-opacity="1" fill-rule="nonzero"/><path fill="#1689fc" d="M 621.335938 471.667969 C 556.425781 607.785156 456.546875 637.195312 384.074219 637.195312 L 384.074219 130.953125 C 465.683594 130.953125 542.566406 171.707031 589.828125 238.1875 C 637.40625 305.304688 648.75 390.375 621.335938 471.667969 Z M 621.335938 471.667969 " fill-opacity="1" fill-rule="nonzero"/><g clip-path="url(#995cad1fe1)"><path fill="#96ebe6" d="M 602.746094 229.050781 C 552.332031 158.472656 470.722656 115.199219 384.074219 115.199219 C 276 115.199219 177.0625 183.050781 136.414062 282.929688 L 131.058594 293.960938 C 102.128906 382.054688 113.390625 465.496094 165.402344 539.097656 C 215.816406 609.675781 297.425781 652.949219 384.074219 652.949219 C 490.890625 652.949219 588.566406 586.675781 630.472656 489 L 635.199219 479.546875 C 666.691406 389.9375 655.660156 303.851562 602.746094 229.050781 Z M 191.242188 520.820312 C 146.5 457.804688 136.101562 378.089844 161.9375 301.523438 L 166.035156 293.011719 C 191.554688 231.886719 242.285156 184.519531 302.78125 161.832031 C 264.65625 211.617188 241.652344 308.453125 244.492188 339.960938 C 244.175781 340.90625 243.859375 341.851562 243.859375 343.113281 C 235.667969 448.667969 259.613281 550.546875 304.671875 607.578125 C 259.617188 591.191406 219.601562 560.839844 191.242188 520.820312 Z M 368.320312 618.605469 C 357.292969 614.824219 346.265625 606.527344 335.867188 595.496094 C 291.753906 547.921875 267.492188 447.40625 275.371094 345.632812 L 275.371094 342.796875 C 275.371094 341.851562 275.683594 340.59375 275.683594 339.648438 C 284.820312 241.652344 323.261719 164.355469 368.320312 149.542969 Z M 399.828125 618.289062 L 399.828125 149.542969 C 448.351562 165.613281 489 254.886719 493.722656 361.386719 C 498.136719 459.695312 473.558594 552.015625 431.023438 596.757812 C 420.9375 607.15625 410.542969 614.824219 399.828125 618.289062 Z M 606.210938 466.628906 C 570.921875 540.988281 521.136719 586.78125 463.476562 607.261719 C 505.699219 554.011719 529.644531 459.066406 525.234375 360.128906 C 521.453125 276.3125 497.820312 204.054688 463.476562 160.574219 C 508.535156 176.957031 548.550781 207.3125 576.90625 247.324219 C 621.648438 310.34375 632.050781 390.0625 606.210938 466.628906 Z M 606.210938 466.628906 " fill-opacity="1" fill-rule="nonzero"/></g><g clip-path="url(#e8c9212f03)"><path fill="#00c8c8" d="M 602.746094 229.050781 C 552.332031 158.472656 470.722656 115.199219 384.074219 115.199219 L 384.074219 652.949219 C 490.890625 652.949219 588.566406 586.675781 630.472656 489 L 635.199219 479.546875 C 666.691406 389.9375 655.660156 303.851562 602.746094 229.050781 Z M 399.828125 618.289062 L 399.828125 149.542969 C 448.351562 165.613281 489 254.886719 493.722656 361.386719 C 498.136719 459.695312 473.558594 552.015625 431.023438 596.757812 C 420.9375 607.15625 410.542969 614.824219 399.828125 618.289062 Z M 606.210938 466.628906 C 570.921875 540.988281 521.136719 586.78125 463.476562 607.261719 C 505.699219 554.011719 529.644531 459.066406 525.234375 360.128906 C 521.453125 276.3125 497.820312 204.054688 463.476562 160.574219 C 508.535156 176.957031 548.550781 207.3125 576.90625 247.324219 C 621.648438 310.34375 632.050781 390.0625 606.210938 466.628906 Z M 606.210938 466.628906 " fill-opacity="1" fill-rule="nonzero"/></g><g clip-path="url(#5ab01b9bf9)"><path fill="#0053bf" d="M 604.636719 273.792969 L 163.511719 273.792969 C 137.359375 273.792969 115.199219 294.902344 115.199219 321.058594 L 115.199219 447.09375 C 115.199219 473.242188 137.359375 494.355469 163.511719 494.355469 L 604.636719 494.355469 C 630.789062 494.355469 652.949219 473.242188 652.949219 447.09375 L 652.949219 321.058594 C 652.949219 294.902344 630.789062 273.792969 604.636719 273.792969 Z M 604.636719 273.792969 " fill-opacity="1" fill-rule="nonzero"/></g><g clip-path="url(#bfe5ee8bf5)"><path fill="#05377f" d="M 652.949219 321.058594 L 652.949219 447.09375 C 652.949219 473.242188 630.789062 494.355469 604.636719 494.355469 L 384.074219 494.355469 L 384.074219 273.792969 L 604.636719 273.792969 C 630.789062 273.792969 652.949219 294.902344 652.949219 321.058594 Z M 652.949219 321.058594 " fill-opacity="1" fill-rule="nonzero"/></g><path fill="#e1f1fa" d="M 461.273438 359.496094 L 429.761719 422.515625 C 426.925781 427.871094 421.570312 431.339844 415.582031 431.339844 C 409.597656 431.339844 404.242188 427.871094 401.40625 422.515625 L 384.074219 387.855469 L 366.746094 422.515625 C 361.390625 433.230469 343.742188 433.230469 338.386719 422.515625 L 306.878906 359.496094 C 303.097656 351.933594 306.25 342.484375 314.125 338.386719 C 321.6875 334.605469 331.140625 337.757812 335.234375 345.632812 L 352.566406 380.292969 L 369.894531 345.632812 C 372.734375 340.277344 378.40625 337.441406 384.074219 337.441406 C 389.746094 337.441406 395.417969 340.277344 398.253906 345.632812 L 415.582031 380.292969 L 432.914062 345.632812 C 437.007812 337.757812 446.460938 334.605469 454.023438 338.386719 C 461.902344 342.484375 465.050781 351.933594 461.273438 359.496094 Z M 461.273438 359.496094 " fill-opacity="1" fill-rule="nonzero"/><path fill="#bfe1ff" d="M 573.128906 431.339844 C 567.15625 431.339844 561.710938 427.96875 559.035156 422.628906 L 541.617188 387.796875 L 524.203125 422.628906 C 518.847656 433.308594 501.371094 433.308594 496.015625 422.628906 L 465.832031 362.242188 C 463.878906 359.84375 462.617188 356.875 462.402344 353.613281 C 461.847656 344.933594 467.953125 337.472656 476.632812 336.902344 C 483.214844 336.75 489.863281 339.859375 492.691406 345.519531 L 510.109375 380.351562 L 527.527344 345.519531 C 532.878906 334.84375 550.355469 334.84375 555.710938 345.519531 L 573.128906 380.351562 L 590.542969 345.519531 C 594.453125 337.71875 603.914062 334.628906 611.683594 338.472656 C 619.46875 342.367188 622.621094 351.828125 618.730469 359.613281 L 587.21875 422.628906 C 584.542969 427.96875 579.097656 431.339844 573.128906 431.339844 Z M 573.128906 431.339844 " fill-opacity="1" fill-rule="nonzero"/><path fill="#e1f1fa" d="M 290.5625 336.84375 C 284.363281 336.78125 278.289062 339.859375 275.457031 345.519531 L 258.039062 380.351562 L 240.625 345.519531 C 234.949219 334.210938 218.050781 334.292969 212.4375 345.519531 L 195.023438 380.351562 L 177.605469 345.519531 C 173.699219 337.71875 164.222656 334.628906 156.46875 338.472656 C 148.683594 342.367188 145.527344 351.828125 149.421875 359.613281 L 180.929688 422.628906 C 183.605469 427.96875 189.050781 431.339844 195.023438 431.339844 C 200.992188 431.339844 206.4375 427.96875 209.113281 422.628906 L 226.53125 387.796875 L 243.945312 422.628906 C 246.625 427.96875 252.070312 431.339844 258.039062 431.339844 C 264.007812 431.339844 269.457031 427.96875 272.132812 422.628906 L 301.8125 363.273438 C 304.058594 360.71875 305.503906 357.351562 305.75 353.613281 C 306.304688 344.933594 299.242188 337.410156 290.5625 336.84375 Z M 290.5625 336.84375 " fill-opacity="1" fill-rule="nonzero"/><path fill="#bfe1ff" d="M 461.273438 359.496094 L 429.761719 422.515625 C 426.925781 427.871094 421.570312 431.339844 415.582031 431.339844 C 409.597656 431.339844 404.242188 427.871094 401.40625 422.515625 L 384.074219 387.855469 L 384.074219 337.441406 C 389.746094 337.441406 395.417969 340.277344 398.253906 345.632812 L 415.582031 380.292969 L 432.914062 345.632812 C 437.007812 337.757812 446.460938 334.605469 454.023438 338.386719 C 461.902344 342.484375 465.050781 351.933594 461.273438 359.496094 Z M 461.273438 359.496094 " fill-opacity="1" fill-rule="nonzero"/></svg>